<mxfile host="app.diagrams.net" agent="Mozilla/5.0 (Windows NT 10.0; Win64; x64) AppleWebKit/537.36 (KHTML, like Gecko) Chrome/127.0.0.0 Safari/537.36 OPR/113.0.0.0 (Edition std-1)" version="24.7.16">
  <diagram name="Página-1" id="PJ1ZKr2Hb8yGhE3uszC_">
    <mxGraphModel grid="1" page="1" gridSize="10" guides="1" tooltips="1" connect="1" arrows="1" fold="1" pageScale="1" pageWidth="827" pageHeight="1169" math="0" shadow="0">
      <root>
        <mxCell id="0" />
        <mxCell id="1" parent="0" />
        <mxCell id="C6MZclwZwIshW8--uffp-1" value="Codigo" style="ellipse;whiteSpace=wrap;html=1;aspect=fixed;fillColor=#76609C;strokeColor=#432D57;fontColor=#ffffff;" vertex="1" parent="1">
          <mxGeometry x="-10" y="790" width="60" height="60" as="geometry" />
        </mxCell>
        <mxCell id="C6MZclwZwIshW8--uffp-2" value="Medicamento" style="whiteSpace=wrap;html=1;fillColor=#e1d5e7;strokeColor=#9673a6;" vertex="1" parent="1">
          <mxGeometry x="160" y="650" width="120" height="60" as="geometry" />
        </mxCell>
        <mxCell id="C6MZclwZwIshW8--uffp-6" value="" style="endArrow=none;html=1;rounded=0;entryX=0.5;entryY=1;entryDx=0;entryDy=0;exitX=0.5;exitY=0;exitDx=0;exitDy=0;" edge="1" parent="1" source="C6MZclwZwIshW8--uffp-1" target="C6MZclwZwIshW8--uffp-2">
          <mxGeometry width="50" height="50" relative="1" as="geometry">
            <mxPoint x="390" y="-120" as="sourcePoint" />
            <mxPoint x="440" y="-170" as="targetPoint" />
          </mxGeometry>
        </mxCell>
        <mxCell id="C6MZclwZwIshW8--uffp-8" value="Nombre" style="ellipse;whiteSpace=wrap;html=1;aspect=fixed;fillColor=#e1d5e7;strokeColor=#9673a6;" vertex="1" parent="1">
          <mxGeometry x="70" y="780" width="60" height="60" as="geometry" />
        </mxCell>
        <mxCell id="C6MZclwZwIshW8--uffp-9" value="" style="endArrow=none;html=1;rounded=0;exitX=0.5;exitY=0;exitDx=0;exitDy=0;entryX=0.5;entryY=1;entryDx=0;entryDy=0;" edge="1" parent="1" source="C6MZclwZwIshW8--uffp-8" target="C6MZclwZwIshW8--uffp-2">
          <mxGeometry width="50" height="50" relative="1" as="geometry">
            <mxPoint x="210" y="-140" as="sourcePoint" />
            <mxPoint x="260" y="-190" as="targetPoint" />
          </mxGeometry>
        </mxCell>
        <mxCell id="C6MZclwZwIshW8--uffp-10" value="Tipo" style="ellipse;whiteSpace=wrap;html=1;aspect=fixed;shadow=0;fillColor=#e1d5e7;strokeColor=#9673a6;" vertex="1" parent="1">
          <mxGeometry x="140" y="799" width="61" height="61" as="geometry" />
        </mxCell>
        <mxCell id="C6MZclwZwIshW8--uffp-11" value="" style="endArrow=none;html=1;rounded=0;exitX=0.5;exitY=0;exitDx=0;exitDy=0;entryX=0.5;entryY=1;entryDx=0;entryDy=0;" edge="1" parent="1" source="C6MZclwZwIshW8--uffp-10" target="C6MZclwZwIshW8--uffp-2">
          <mxGeometry width="50" height="50" relative="1" as="geometry">
            <mxPoint x="210" y="-140" as="sourcePoint" />
            <mxPoint x="260" y="-190" as="targetPoint" />
          </mxGeometry>
        </mxCell>
        <mxCell id="C6MZclwZwIshW8--uffp-12" value="Ud. Stock" style="ellipse;whiteSpace=wrap;html=1;aspect=fixed;fillColor=#e1d5e7;strokeColor=#9673a6;" vertex="1" parent="1">
          <mxGeometry x="180" y="320" width="60" height="60" as="geometry" />
        </mxCell>
        <mxCell id="C6MZclwZwIshW8--uffp-13" value="Un. Vendidas" style="ellipse;whiteSpace=wrap;html=1;aspect=fixed;fillColor=#e1d5e7;strokeColor=#9673a6;" vertex="1" parent="1">
          <mxGeometry x="60" y="374" width="61" height="61" as="geometry" />
        </mxCell>
        <mxCell id="C6MZclwZwIshW8--uffp-14" value="" style="endArrow=none;html=1;rounded=0;exitX=0.5;exitY=1;exitDx=0;exitDy=0;entryX=0.5;entryY=0;entryDx=0;entryDy=0;" edge="1" parent="1" source="C6MZclwZwIshW8--uffp-12" target="C6MZclwZwIshW8--uffp-46">
          <mxGeometry width="50" height="50" relative="1" as="geometry">
            <mxPoint x="210" y="-130" as="sourcePoint" />
            <mxPoint x="240" y="-220" as="targetPoint" />
          </mxGeometry>
        </mxCell>
        <mxCell id="C6MZclwZwIshW8--uffp-15" value="" style="endArrow=none;html=1;rounded=0;exitX=0.5;exitY=1;exitDx=0;exitDy=0;entryX=0.5;entryY=0;entryDx=0;entryDy=0;" edge="1" parent="1" source="C6MZclwZwIshW8--uffp-13" target="C6MZclwZwIshW8--uffp-46">
          <mxGeometry width="50" height="50" relative="1" as="geometry">
            <mxPoint x="210" y="-130" as="sourcePoint" />
            <mxPoint x="260" y="-180" as="targetPoint" />
          </mxGeometry>
        </mxCell>
        <mxCell id="C6MZclwZwIshW8--uffp-16" value="Precio" style="ellipse;whiteSpace=wrap;html=1;aspect=fixed;fillColor=#e1d5e7;strokeColor=#9673a6;" vertex="1" parent="1">
          <mxGeometry x="110" y="330" width="60" height="60" as="geometry" />
        </mxCell>
        <mxCell id="C6MZclwZwIshW8--uffp-17" value="" style="endArrow=none;html=1;rounded=0;exitX=0.5;exitY=1;exitDx=0;exitDy=0;entryX=0.5;entryY=0;entryDx=0;entryDy=0;" edge="1" parent="1" source="C6MZclwZwIshW8--uffp-16" target="C6MZclwZwIshW8--uffp-46">
          <mxGeometry width="50" height="50" relative="1" as="geometry">
            <mxPoint x="360" y="-130" as="sourcePoint" />
            <mxPoint x="240" y="-220" as="targetPoint" />
          </mxGeometry>
        </mxCell>
        <mxCell id="C6MZclwZwIshW8--uffp-18" value="Tipo de Venta" style="ellipse;whiteSpace=wrap;html=1;aspect=fixed;fillColor=#e1d5e7;strokeColor=#9673a6;" vertex="1" parent="1">
          <mxGeometry x="219" y="794" width="61" height="61" as="geometry" />
        </mxCell>
        <mxCell id="C6MZclwZwIshW8--uffp-19" value="" style="endArrow=none;html=1;rounded=0;exitX=0.5;exitY=0;exitDx=0;exitDy=0;entryX=0.5;entryY=1;entryDx=0;entryDy=0;" edge="1" parent="1" source="C6MZclwZwIshW8--uffp-18" target="C6MZclwZwIshW8--uffp-2">
          <mxGeometry width="50" height="50" relative="1" as="geometry">
            <mxPoint x="440" y="790" as="sourcePoint" />
            <mxPoint x="490" y="740" as="targetPoint" />
          </mxGeometry>
        </mxCell>
        <mxCell id="C6MZclwZwIshW8--uffp-20" value="Farmacia" style="rounded=0;whiteSpace=wrap;html=1;fillColor=#e1d5e7;strokeColor=#9673a6;" vertex="1" parent="1">
          <mxGeometry x="670" y="515" width="120" height="60" as="geometry" />
        </mxCell>
        <mxCell id="C6MZclwZwIshW8--uffp-21" value="Laboratorio" style="rounded=0;whiteSpace=wrap;html=1;direction=west;fillColor=#e1d5e7;strokeColor=#9673a6;" vertex="1" parent="1">
          <mxGeometry x="670" y="775" width="120" height="60" as="geometry" />
        </mxCell>
        <mxCell id="C6MZclwZwIshW8--uffp-22" value="Fax" style="ellipse;whiteSpace=wrap;html=1;aspect=fixed;fillColor=#e1d5e7;strokeColor=#9673a6;" vertex="1" parent="1">
          <mxGeometry x="720" y="944" width="60" height="60" as="geometry" />
        </mxCell>
        <mxCell id="C6MZclwZwIshW8--uffp-23" value="Codigo" style="ellipse;whiteSpace=wrap;html=1;aspect=fixed;fillColor=#76609C;fontColor=#ffffff;strokeColor=#3700CC;" vertex="1" parent="1">
          <mxGeometry x="590" y="855" width="60" height="60" as="geometry" />
        </mxCell>
        <mxCell id="C6MZclwZwIshW8--uffp-24" value="Nombre" style="ellipse;whiteSpace=wrap;html=1;aspect=fixed;fillColor=#e1d5e7;strokeColor=#9673a6;" vertex="1" parent="1">
          <mxGeometry x="800" y="935" width="60" height="60" as="geometry" />
        </mxCell>
        <mxCell id="C6MZclwZwIshW8--uffp-25" value="Telefono" style="ellipse;whiteSpace=wrap;html=1;aspect=fixed;fillColor=#e1d5e7;strokeColor=#9673a6;" vertex="1" parent="1">
          <mxGeometry x="650" y="925" width="60" height="60" as="geometry" />
        </mxCell>
        <mxCell id="C6MZclwZwIshW8--uffp-26" value="Dirección Postal" style="ellipse;whiteSpace=wrap;html=1;aspect=fixed;fillColor=#e1d5e7;strokeColor=#9673a6;" vertex="1" parent="1">
          <mxGeometry x="910" y="830" width="60" height="60" as="geometry" />
        </mxCell>
        <mxCell id="C6MZclwZwIshW8--uffp-28" value="Contacto" style="ellipse;whiteSpace=wrap;html=1;aspect=fixed;fillColor=#e1d5e7;strokeColor=#9673a6;" vertex="1" parent="1">
          <mxGeometry x="840" y="865" width="60" height="60" as="geometry" />
        </mxCell>
        <mxCell id="C6MZclwZwIshW8--uffp-29" value="" style="endArrow=none;html=1;rounded=0;entryX=0.5;entryY=0;entryDx=0;entryDy=0;exitX=0;exitY=0.5;exitDx=0;exitDy=0;" edge="1" parent="1" source="C6MZclwZwIshW8--uffp-26" target="C6MZclwZwIshW8--uffp-21">
          <mxGeometry width="50" height="50" relative="1" as="geometry">
            <mxPoint x="670" y="795" as="sourcePoint" />
            <mxPoint x="720" y="745" as="targetPoint" />
          </mxGeometry>
        </mxCell>
        <mxCell id="C6MZclwZwIshW8--uffp-30" value="" style="endArrow=none;html=1;rounded=0;exitX=0;exitY=0.5;exitDx=0;exitDy=0;entryX=0.5;entryY=0;entryDx=0;entryDy=0;" edge="1" parent="1" source="C6MZclwZwIshW8--uffp-28" target="C6MZclwZwIshW8--uffp-21">
          <mxGeometry width="50" height="50" relative="1" as="geometry">
            <mxPoint x="670" y="795" as="sourcePoint" />
            <mxPoint x="720" y="745" as="targetPoint" />
          </mxGeometry>
        </mxCell>
        <mxCell id="C6MZclwZwIshW8--uffp-31" value="" style="endArrow=none;html=1;rounded=0;exitX=0;exitY=0;exitDx=0;exitDy=0;entryX=0.5;entryY=0;entryDx=0;entryDy=0;" edge="1" parent="1" source="C6MZclwZwIshW8--uffp-24" target="C6MZclwZwIshW8--uffp-21">
          <mxGeometry width="50" height="50" relative="1" as="geometry">
            <mxPoint x="670" y="795" as="sourcePoint" />
            <mxPoint x="720" y="745" as="targetPoint" />
          </mxGeometry>
        </mxCell>
        <mxCell id="C6MZclwZwIshW8--uffp-32" value="" style="endArrow=none;html=1;rounded=0;exitX=0.5;exitY=0;exitDx=0;exitDy=0;entryX=0.5;entryY=0;entryDx=0;entryDy=0;" edge="1" parent="1" source="C6MZclwZwIshW8--uffp-22" target="C6MZclwZwIshW8--uffp-21">
          <mxGeometry width="50" height="50" relative="1" as="geometry">
            <mxPoint x="670" y="795" as="sourcePoint" />
            <mxPoint x="720" y="745" as="targetPoint" />
          </mxGeometry>
        </mxCell>
        <mxCell id="C6MZclwZwIshW8--uffp-33" value="" style="endArrow=none;html=1;rounded=0;exitX=0.5;exitY=0;exitDx=0;exitDy=0;entryX=0.5;entryY=0;entryDx=0;entryDy=0;" edge="1" parent="1" source="C6MZclwZwIshW8--uffp-25" target="C6MZclwZwIshW8--uffp-21">
          <mxGeometry width="50" height="50" relative="1" as="geometry">
            <mxPoint x="670" y="795" as="sourcePoint" />
            <mxPoint x="760" y="835" as="targetPoint" />
          </mxGeometry>
        </mxCell>
        <mxCell id="C6MZclwZwIshW8--uffp-34" value="" style="endArrow=none;html=1;rounded=0;exitX=1;exitY=0;exitDx=0;exitDy=0;entryX=0.5;entryY=0;entryDx=0;entryDy=0;" edge="1" parent="1" source="C6MZclwZwIshW8--uffp-23" target="C6MZclwZwIshW8--uffp-21">
          <mxGeometry width="50" height="50" relative="1" as="geometry">
            <mxPoint x="670" y="795" as="sourcePoint" />
            <mxPoint x="720" y="745" as="targetPoint" />
          </mxGeometry>
        </mxCell>
        <mxCell id="C6MZclwZwIshW8--uffp-36" value="&lt;div&gt;Enfermedad&lt;/div&gt;" style="rounded=0;whiteSpace=wrap;html=1;fillColor=#e1d5e7;strokeColor=#9673a6;" vertex="1" parent="1">
          <mxGeometry x="-60" y="485" width="120" height="60" as="geometry" />
        </mxCell>
        <mxCell id="C6MZclwZwIshW8--uffp-38" value="cura" style="rhombus;whiteSpace=wrap;html=1;fillColor=#fff2cc;strokeColor=#d6b656;" vertex="1" parent="1">
          <mxGeometry x="-40" y="640" width="80" height="80" as="geometry" />
        </mxCell>
        <mxCell id="C6MZclwZwIshW8--uffp-39" value="&lt;div&gt;es curado&lt;/div&gt;&lt;div&gt;&lt;br&gt;&lt;/div&gt;" style="endArrow=none;html=1;rounded=0;exitX=0;exitY=0.5;exitDx=0;exitDy=0;entryX=1;entryY=0.5;entryDx=0;entryDy=0;" edge="1" parent="1" source="C6MZclwZwIshW8--uffp-2" target="C6MZclwZwIshW8--uffp-38">
          <mxGeometry width="50" height="50" relative="1" as="geometry">
            <mxPoint x="560" y="610" as="sourcePoint" />
            <mxPoint x="610" y="560" as="targetPoint" />
          </mxGeometry>
        </mxCell>
        <mxCell id="C6MZclwZwIshW8--uffp-40" value="cura" style="endArrow=none;html=1;rounded=0;exitX=0.5;exitY=0;exitDx=0;exitDy=0;entryX=0.5;entryY=1;entryDx=0;entryDy=0;" edge="1" parent="1" source="C6MZclwZwIshW8--uffp-38" target="C6MZclwZwIshW8--uffp-36">
          <mxGeometry width="50" height="50" relative="1" as="geometry">
            <mxPoint x="560" y="610" as="sourcePoint" />
            <mxPoint x="610" y="560" as="targetPoint" />
            <mxPoint as="offset" />
          </mxGeometry>
        </mxCell>
        <mxCell id="C6MZclwZwIshW8--uffp-41" value="(0,n)" style="text;html=1;align=center;verticalAlign=middle;whiteSpace=wrap;rounded=0;" vertex="1" parent="1">
          <mxGeometry x="110" y="650" width="60" height="30" as="geometry" />
        </mxCell>
        <mxCell id="C6MZclwZwIshW8--uffp-42" value="N:M" style="text;html=1;align=center;verticalAlign=middle;whiteSpace=wrap;rounded=0;" vertex="1" parent="1">
          <mxGeometry x="-30" y="720" width="60" height="30" as="geometry" />
        </mxCell>
        <mxCell id="C6MZclwZwIshW8--uffp-43" value="(1,n)" style="text;html=1;align=center;verticalAlign=middle;whiteSpace=wrap;rounded=0;" vertex="1" parent="1">
          <mxGeometry y="540" width="60" height="30" as="geometry" />
        </mxCell>
        <mxCell id="C6MZclwZwIshW8--uffp-45" value="compra" style="rhombus;whiteSpace=wrap;html=1;fillColor=#fff2cc;strokeColor=#d6b656;" vertex="1" parent="1">
          <mxGeometry x="690" y="640" width="80" height="80" as="geometry" />
        </mxCell>
        <mxCell id="C6MZclwZwIshW8--uffp-46" value="tiene" style="rhombus;whiteSpace=wrap;html=1;fillColor=#fff2cc;strokeColor=#d6b656;" vertex="1" parent="1">
          <mxGeometry x="150" y="435" width="80" height="80" as="geometry" />
        </mxCell>
        <mxCell id="C6MZclwZwIshW8--uffp-48" value="está en" style="endArrow=none;html=1;rounded=0;exitX=1;exitY=0.5;exitDx=0;exitDy=0;entryX=0.5;entryY=0;entryDx=0;entryDy=0;" edge="1" parent="1" source="C6MZclwZwIshW8--uffp-46" target="C6MZclwZwIshW8--uffp-20">
          <mxGeometry width="50" height="50" relative="1" as="geometry">
            <mxPoint x="580" y="690" as="sourcePoint" />
            <mxPoint x="630" y="640" as="targetPoint" />
            <Array as="points">
              <mxPoint x="730" y="475" />
            </Array>
          </mxGeometry>
        </mxCell>
        <mxCell id="C6MZclwZwIshW8--uffp-49" value="tiene" style="endArrow=none;html=1;rounded=0;exitX=0.25;exitY=0;exitDx=0;exitDy=0;entryX=0.5;entryY=1;entryDx=0;entryDy=0;" edge="1" parent="1" source="C6MZclwZwIshW8--uffp-2" target="C6MZclwZwIshW8--uffp-46">
          <mxGeometry width="50" height="50" relative="1" as="geometry">
            <mxPoint x="580" y="690" as="sourcePoint" />
            <mxPoint x="630" y="640" as="targetPoint" />
          </mxGeometry>
        </mxCell>
        <mxCell id="C6MZclwZwIshW8--uffp-51" value="(0,n)" style="text;html=1;align=center;verticalAlign=middle;whiteSpace=wrap;rounded=0;" vertex="1" parent="1">
          <mxGeometry x="720" y="490" width="60" height="30" as="geometry" />
        </mxCell>
        <mxCell id="C6MZclwZwIshW8--uffp-52" value="N:M" style="text;html=1;align=center;verticalAlign=middle;whiteSpace=wrap;rounded=0;" vertex="1" parent="1">
          <mxGeometry x="110" y="460" width="60" height="30" as="geometry" />
        </mxCell>
        <mxCell id="C6MZclwZwIshW8--uffp-53" value="(1,n)" style="text;html=1;align=center;verticalAlign=middle;whiteSpace=wrap;rounded=0;" vertex="1" parent="1">
          <mxGeometry x="141" y="620" width="60" height="30" as="geometry" />
        </mxCell>
        <mxCell id="C6MZclwZwIshW8--uffp-56" style="edgeStyle=orthogonalEdgeStyle;rounded=0;orthogonalLoop=1;jettySize=auto;html=1;exitX=0.5;exitY=1;exitDx=0;exitDy=0;" edge="1" parent="1" source="C6MZclwZwIshW8--uffp-52" target="C6MZclwZwIshW8--uffp-52">
          <mxGeometry relative="1" as="geometry" />
        </mxCell>
        <mxCell id="C6MZclwZwIshW8--uffp-57" value="fabrica" style="rhombus;whiteSpace=wrap;html=1;fillColor=#fff2cc;strokeColor=#d6b656;" vertex="1" parent="1">
          <mxGeometry x="209.5" y="510" width="80" height="80" as="geometry" />
        </mxCell>
        <mxCell id="C6MZclwZwIshW8--uffp-58" value="fabrica" style="endArrow=none;html=1;rounded=0;exitX=0.75;exitY=0;exitDx=0;exitDy=0;entryX=0.5;entryY=1;entryDx=0;entryDy=0;" edge="1" parent="1" source="C6MZclwZwIshW8--uffp-2" target="C6MZclwZwIshW8--uffp-57">
          <mxGeometry width="50" height="50" relative="1" as="geometry">
            <mxPoint x="580" y="690" as="sourcePoint" />
            <mxPoint x="630" y="640" as="targetPoint" />
          </mxGeometry>
        </mxCell>
        <mxCell id="C6MZclwZwIshW8--uffp-59" value="es fabricado" style="endArrow=none;html=1;rounded=0;exitX=1;exitY=0.5;exitDx=0;exitDy=0;entryX=0;entryY=0.5;entryDx=0;entryDy=0;" edge="1" parent="1" source="C6MZclwZwIshW8--uffp-57" target="C6MZclwZwIshW8--uffp-20">
          <mxGeometry width="50" height="50" relative="1" as="geometry">
            <mxPoint x="580" y="690" as="sourcePoint" />
            <mxPoint x="630" y="640" as="targetPoint" />
          </mxGeometry>
        </mxCell>
        <mxCell id="C6MZclwZwIshW8--uffp-60" value="N:M" style="text;html=1;align=center;verticalAlign=middle;whiteSpace=wrap;rounded=0;" vertex="1" parent="1">
          <mxGeometry x="220" y="490" width="60" height="30" as="geometry" />
        </mxCell>
        <mxCell id="C6MZclwZwIshW8--uffp-64" value="(0,n)" style="text;html=1;align=center;verticalAlign=middle;whiteSpace=wrap;rounded=0;" vertex="1" parent="1">
          <mxGeometry x="620" y="545" width="60" height="30" as="geometry" />
        </mxCell>
        <mxCell id="C6MZclwZwIshW8--uffp-65" value="(0,n)" style="text;html=1;align=center;verticalAlign=middle;whiteSpace=wrap;rounded=0;" vertex="1" parent="1">
          <mxGeometry x="240" y="620" width="60" height="30" as="geometry" />
        </mxCell>
        <mxCell id="C6MZclwZwIshW8--uffp-66" value="" style="endArrow=none;html=1;rounded=0;exitX=1;exitY=0.5;exitDx=0;exitDy=0;entryX=0;entryY=0.5;entryDx=0;entryDy=0;" edge="1" parent="1" source="C6MZclwZwIshW8--uffp-2" target="C6MZclwZwIshW8--uffp-45">
          <mxGeometry width="50" height="50" relative="1" as="geometry">
            <mxPoint x="580" y="660" as="sourcePoint" />
            <mxPoint x="630" y="610" as="targetPoint" />
          </mxGeometry>
        </mxCell>
        <mxCell id="C6MZclwZwIshW8--uffp-67" value="" style="endArrow=none;html=1;rounded=0;exitX=0.5;exitY=0;exitDx=0;exitDy=0;entryX=0.5;entryY=1;entryDx=0;entryDy=0;" edge="1" parent="1" source="C6MZclwZwIshW8--uffp-45" target="C6MZclwZwIshW8--uffp-20">
          <mxGeometry width="50" height="50" relative="1" as="geometry">
            <mxPoint x="580" y="660" as="sourcePoint" />
            <mxPoint x="630" y="610" as="targetPoint" />
          </mxGeometry>
        </mxCell>
        <mxCell id="C6MZclwZwIshW8--uffp-68" value="" style="endArrow=none;html=1;rounded=0;exitX=0.5;exitY=1;exitDx=0;exitDy=0;entryX=0.5;entryY=1;entryDx=0;entryDy=0;" edge="1" parent="1" source="C6MZclwZwIshW8--uffp-21" target="C6MZclwZwIshW8--uffp-45">
          <mxGeometry width="50" height="50" relative="1" as="geometry">
            <mxPoint x="580" y="630" as="sourcePoint" />
            <mxPoint x="630" y="580" as="targetPoint" />
          </mxGeometry>
        </mxCell>
        <mxCell id="C6MZclwZwIshW8--uffp-69" value="compra" style="text;html=1;align=center;verticalAlign=middle;whiteSpace=wrap;rounded=0;" vertex="1" parent="1">
          <mxGeometry x="730" y="730" width="60" height="30" as="geometry" />
        </mxCell>
        <mxCell id="C6MZclwZwIshW8--uffp-70" value="vende" style="text;html=1;align=center;verticalAlign=middle;whiteSpace=wrap;rounded=0;" vertex="1" parent="1">
          <mxGeometry x="730" y="600" width="60" height="30" as="geometry" />
        </mxCell>
        <mxCell id="C6MZclwZwIshW8--uffp-71" value="es comprado" style="text;html=1;align=center;verticalAlign=middle;whiteSpace=wrap;rounded=0;" vertex="1" parent="1">
          <mxGeometry x="400" y="650" width="60" height="30" as="geometry" />
        </mxCell>
        <mxCell id="C6MZclwZwIshW8--uffp-72" value="N:M:P" style="text;html=1;align=center;verticalAlign=middle;whiteSpace=wrap;rounded=0;" vertex="1" parent="1">
          <mxGeometry x="767" y="665" width="60" height="30" as="geometry" />
        </mxCell>
        <mxCell id="C6MZclwZwIshW8--uffp-74" value="Cliente" style="rounded=0;whiteSpace=wrap;html=1;fillColor=#E1D5E7;strokeColor=#9673A6;" vertex="1" parent="1">
          <mxGeometry x="340" y="960" width="120" height="60" as="geometry" />
        </mxCell>
        <mxCell id="C6MZclwZwIshW8--uffp-78" value="compra" style="rhombus;whiteSpace=wrap;html=1;fillColor=#fff2cc;strokeColor=#d6b656;" vertex="1" parent="1">
          <mxGeometry x="360" y="790" width="80" height="80" as="geometry" />
        </mxCell>
        <mxCell id="C6MZclwZwIshW8--uffp-79" value="es comprado" style="endArrow=none;html=1;rounded=0;exitX=1;exitY=0.75;exitDx=0;exitDy=0;entryX=0;entryY=0.5;entryDx=0;entryDy=0;" edge="1" parent="1" source="C6MZclwZwIshW8--uffp-2" target="C6MZclwZwIshW8--uffp-78">
          <mxGeometry width="50" height="50" relative="1" as="geometry">
            <mxPoint x="580" y="830" as="sourcePoint" />
            <mxPoint x="340" y="820" as="targetPoint" />
            <Array as="points">
              <mxPoint x="340" y="695" />
              <mxPoint x="340" y="830" />
            </Array>
          </mxGeometry>
        </mxCell>
        <mxCell id="C6MZclwZwIshW8--uffp-80" value="vende" style="endArrow=none;html=1;rounded=0;exitX=0.5;exitY=1;exitDx=0;exitDy=0;entryX=0.5;entryY=0;entryDx=0;entryDy=0;" edge="1" parent="1" source="C6MZclwZwIshW8--uffp-78" target="C6MZclwZwIshW8--uffp-74">
          <mxGeometry width="50" height="50" relative="1" as="geometry">
            <mxPoint x="580" y="830" as="sourcePoint" />
            <mxPoint x="630" y="780" as="targetPoint" />
          </mxGeometry>
        </mxCell>
        <mxCell id="C6MZclwZwIshW8--uffp-81" value="compra" style="endArrow=none;html=1;rounded=0;exitX=1;exitY=0.5;exitDx=0;exitDy=0;entryX=1;entryY=0.5;entryDx=0;entryDy=0;" edge="1" parent="1" source="C6MZclwZwIshW8--uffp-78" target="C6MZclwZwIshW8--uffp-20">
          <mxGeometry width="50" height="50" relative="1" as="geometry">
            <mxPoint x="580" y="830" as="sourcePoint" />
            <mxPoint x="630" y="780" as="targetPoint" />
            <Array as="points">
              <mxPoint x="490" y="830" />
              <mxPoint x="490" y="1060" />
              <mxPoint x="1010" y="1060" />
              <mxPoint x="1010" y="545" />
            </Array>
          </mxGeometry>
        </mxCell>
        <mxCell id="C6MZclwZwIshW8--uffp-82" value="Unidades" style="ellipse;whiteSpace=wrap;html=1;aspect=fixed;shadow=0;fillColor=#e1d5e7;strokeColor=#9673a6;" vertex="1" parent="1">
          <mxGeometry x="490" y="704.5" width="61" height="61" as="geometry" />
        </mxCell>
        <mxCell id="C6MZclwZwIshW8--uffp-83" value="Fecha" style="ellipse;whiteSpace=wrap;html=1;aspect=fixed;shadow=0;fillColor=#e1d5e7;strokeColor=#9673a6;" vertex="1" parent="1">
          <mxGeometry x="410" y="704.5" width="61" height="61" as="geometry" />
        </mxCell>
        <mxCell id="C6MZclwZwIshW8--uffp-84" value="" style="endArrow=none;html=1;rounded=0;exitX=0.5;exitY=0;exitDx=0;exitDy=0;entryX=0.5;entryY=1;entryDx=0;entryDy=0;" edge="1" parent="1" source="C6MZclwZwIshW8--uffp-78" target="C6MZclwZwIshW8--uffp-83">
          <mxGeometry width="50" height="50" relative="1" as="geometry">
            <mxPoint x="580" y="830" as="sourcePoint" />
            <mxPoint x="630" y="780" as="targetPoint" />
          </mxGeometry>
        </mxCell>
        <mxCell id="C6MZclwZwIshW8--uffp-85" value="" style="endArrow=none;html=1;rounded=0;entryX=0.5;entryY=1;entryDx=0;entryDy=0;exitX=0.5;exitY=0;exitDx=0;exitDy=0;" edge="1" parent="1" source="C6MZclwZwIshW8--uffp-78" target="C6MZclwZwIshW8--uffp-82">
          <mxGeometry width="50" height="50" relative="1" as="geometry">
            <mxPoint x="400" y="790" as="sourcePoint" />
            <mxPoint x="451" y="776" as="targetPoint" />
          </mxGeometry>
        </mxCell>
        <mxCell id="C6MZclwZwIshW8--uffp-87" value="Con Credito(Si/No)" style="ellipse;whiteSpace=wrap;html=1;aspect=fixed;shadow=0;fillColor=#e1d5e7;strokeColor=#9673a6;" vertex="1" parent="1">
          <mxGeometry x="414" y="1060" width="61" height="61" as="geometry" />
        </mxCell>
        <mxCell id="C6MZclwZwIshW8--uffp-92" value="" style="endArrow=none;html=1;rounded=0;entryX=0.5;entryY=1;entryDx=0;entryDy=0;exitX=0.5;exitY=0;exitDx=0;exitDy=0;" edge="1" parent="1" source="C6MZclwZwIshW8--uffp-87" target="C6MZclwZwIshW8--uffp-74">
          <mxGeometry width="50" height="50" relative="1" as="geometry">
            <mxPoint x="340" y="1071" as="sourcePoint" />
            <mxPoint x="410" y="1030" as="targetPoint" />
          </mxGeometry>
        </mxCell>
        <mxCell id="C6MZclwZwIshW8--uffp-93" value="Codigo" style="ellipse;whiteSpace=wrap;html=1;aspect=fixed;fillColor=#76609C;strokeColor=#3700CC;fontColor=#ffffff;" vertex="1" parent="1">
          <mxGeometry x="324" y="1060" width="60" height="60" as="geometry" />
        </mxCell>
        <mxCell id="C6MZclwZwIshW8--uffp-96" value="" style="endArrow=none;html=1;rounded=0;entryX=0.5;entryY=1;entryDx=0;entryDy=0;exitX=0.5;exitY=0;exitDx=0;exitDy=0;" edge="1" parent="1" source="C6MZclwZwIshW8--uffp-93" target="C6MZclwZwIshW8--uffp-74">
          <mxGeometry width="50" height="50" relative="1" as="geometry">
            <mxPoint x="380" y="1070" as="sourcePoint" />
            <mxPoint x="410" y="1030" as="targetPoint" />
          </mxGeometry>
        </mxCell>
        <mxCell id="C6MZclwZwIshW8--uffp-97" value="N:M:P" style="text;html=1;align=center;verticalAlign=middle;whiteSpace=wrap;rounded=0;" vertex="1" parent="1">
          <mxGeometry x="340" y="850" width="60" height="30" as="geometry" />
        </mxCell>
        <mxCell id="pn0MNRhcbDgNSIHe0qgf-2" value="(1,n)" style="text;html=1;align=center;verticalAlign=middle;whiteSpace=wrap;rounded=0;" vertex="1" parent="1">
          <mxGeometry x="270" y="695" width="60" height="30" as="geometry" />
        </mxCell>
        <mxCell id="pn0MNRhcbDgNSIHe0qgf-3" value="(0,n)" style="text;html=1;align=center;verticalAlign=middle;whiteSpace=wrap;rounded=0;" vertex="1" parent="1">
          <mxGeometry x="384" y="930" width="60" height="30" as="geometry" />
        </mxCell>
        <mxCell id="pn0MNRhcbDgNSIHe0qgf-4" value="(1,n)" style="text;html=1;align=center;verticalAlign=middle;whiteSpace=wrap;rounded=0;" vertex="1" parent="1">
          <mxGeometry x="780" y="540" width="60" height="30" as="geometry" />
        </mxCell>
        <mxCell id="pn0MNRhcbDgNSIHe0qgf-5" value="(0,n)" style="text;html=1;align=center;verticalAlign=middle;whiteSpace=wrap;rounded=0;" vertex="1" parent="1">
          <mxGeometry x="280" y="650" width="60" height="30" as="geometry" />
        </mxCell>
        <mxCell id="pn0MNRhcbDgNSIHe0qgf-6" value="(0,n)" style="text;html=1;align=center;verticalAlign=middle;whiteSpace=wrap;rounded=0;" vertex="1" parent="1">
          <mxGeometry x="670" y="745" width="60" height="30" as="geometry" />
        </mxCell>
        <mxCell id="pn0MNRhcbDgNSIHe0qgf-7" value="(0,n)" style="text;html=1;align=center;verticalAlign=middle;whiteSpace=wrap;rounded=0;" vertex="1" parent="1">
          <mxGeometry x="670" y="570" width="60" height="30" as="geometry" />
        </mxCell>
        <mxCell id="pn0MNRhcbDgNSIHe0qgf-8" value="Cuenta Bancaria" style="shape=process;whiteSpace=wrap;html=1;backgroundOutline=1;fillColor=#E1D5E7;" vertex="1" parent="1">
          <mxGeometry x="1" y="960" width="120" height="60" as="geometry" />
        </mxCell>
        <mxCell id="pn0MNRhcbDgNSIHe0qgf-9" value="tiene" style="rhombus;whiteSpace=wrap;html=1;fillColor=#ffe6cc;strokeColor=#d79b00;" vertex="1" parent="1">
          <mxGeometry x="190" y="950" width="80" height="80" as="geometry" />
        </mxCell>
        <mxCell id="pn0MNRhcbDgNSIHe0qgf-10" value="Número de cuenta" style="ellipse;whiteSpace=wrap;html=1;aspect=fixed;fillColor=#76609C;strokeColor=#3700CC;fontColor=#ffffff;" vertex="1" parent="1">
          <mxGeometry x="-30" y="1061" width="60" height="60" as="geometry" />
        </mxCell>
        <mxCell id="pn0MNRhcbDgNSIHe0qgf-11" value="&lt;div&gt;Dinero en la cuenta&lt;/div&gt;" style="ellipse;whiteSpace=wrap;html=1;aspect=fixed;shadow=0;fillColor=#e1d5e7;strokeColor=#9673a6;" vertex="1" parent="1">
          <mxGeometry x="49" y="1061" width="61" height="61" as="geometry" />
        </mxCell>
        <mxCell id="pn0MNRhcbDgNSIHe0qgf-12" value="tiene" style="endArrow=none;html=1;rounded=0;exitX=1;exitY=0.5;exitDx=0;exitDy=0;entryX=0;entryY=0.5;entryDx=0;entryDy=0;" edge="1" parent="1" source="pn0MNRhcbDgNSIHe0qgf-8" target="pn0MNRhcbDgNSIHe0qgf-9">
          <mxGeometry width="50" height="50" relative="1" as="geometry">
            <mxPoint x="310" y="1000" as="sourcePoint" />
            <mxPoint x="360" y="950" as="targetPoint" />
          </mxGeometry>
        </mxCell>
        <mxCell id="pn0MNRhcbDgNSIHe0qgf-13" value="es tenido" style="endArrow=none;html=1;rounded=0;exitX=1;exitY=0.5;exitDx=0;exitDy=0;entryX=0;entryY=0.5;entryDx=0;entryDy=0;" edge="1" parent="1" source="pn0MNRhcbDgNSIHe0qgf-9" target="C6MZclwZwIshW8--uffp-74">
          <mxGeometry width="50" height="50" relative="1" as="geometry">
            <mxPoint x="310" y="1000" as="sourcePoint" />
            <mxPoint x="360" y="950" as="targetPoint" />
          </mxGeometry>
        </mxCell>
        <mxCell id="pn0MNRhcbDgNSIHe0qgf-14" value="" style="endArrow=none;html=1;rounded=0;exitX=0.5;exitY=0;exitDx=0;exitDy=0;entryX=0.5;entryY=1;entryDx=0;entryDy=0;" edge="1" parent="1" source="pn0MNRhcbDgNSIHe0qgf-11" target="pn0MNRhcbDgNSIHe0qgf-8">
          <mxGeometry width="50" height="50" relative="1" as="geometry">
            <mxPoint x="310" y="1000" as="sourcePoint" />
            <mxPoint x="360" y="950" as="targetPoint" />
          </mxGeometry>
        </mxCell>
        <mxCell id="pn0MNRhcbDgNSIHe0qgf-15" value="" style="endArrow=none;html=1;rounded=0;exitX=0.5;exitY=0;exitDx=0;exitDy=0;entryX=0.5;entryY=1;entryDx=0;entryDy=0;" edge="1" parent="1" source="pn0MNRhcbDgNSIHe0qgf-10" target="pn0MNRhcbDgNSIHe0qgf-8">
          <mxGeometry width="50" height="50" relative="1" as="geometry">
            <mxPoint x="310" y="1000" as="sourcePoint" />
            <mxPoint x="360" y="950" as="targetPoint" />
          </mxGeometry>
        </mxCell>
        <mxCell id="pn0MNRhcbDgNSIHe0qgf-17" value="(1,1)" style="text;html=1;align=center;verticalAlign=middle;whiteSpace=wrap;rounded=0;" vertex="1" parent="1">
          <mxGeometry x="289.5" y="990" width="60" height="30" as="geometry" />
        </mxCell>
        <mxCell id="pn0MNRhcbDgNSIHe0qgf-18" value="(0,n)" style="text;html=1;align=center;verticalAlign=middle;whiteSpace=wrap;rounded=0;" vertex="1" parent="1">
          <mxGeometry x="110" y="990" width="60" height="30" as="geometry" />
        </mxCell>
        <mxCell id="pn0MNRhcbDgNSIHe0qgf-19" value="1:N" style="text;html=1;align=center;verticalAlign=middle;whiteSpace=wrap;rounded=0;" vertex="1" parent="1">
          <mxGeometry x="200" y="915" width="60" height="30" as="geometry" />
        </mxCell>
        <mxCell id="pn0MNRhcbDgNSIHe0qgf-23" value="Nombre" style="ellipse;whiteSpace=wrap;html=1;aspect=fixed;fillColor=#76609C;strokeColor=#432D57;fontColor=#ffffff;" vertex="1" parent="1">
          <mxGeometry x="-60" y="375" width="60" height="60" as="geometry" />
        </mxCell>
        <mxCell id="pn0MNRhcbDgNSIHe0qgf-24" value="" style="endArrow=none;html=1;rounded=0;entryX=0.5;entryY=0;entryDx=0;entryDy=0;exitX=0.5;exitY=1;exitDx=0;exitDy=0;" edge="1" parent="1" source="pn0MNRhcbDgNSIHe0qgf-23" target="C6MZclwZwIshW8--uffp-36">
          <mxGeometry width="50" height="50" relative="1" as="geometry">
            <mxPoint x="70" y="-530" as="sourcePoint" />
            <mxPoint x="-100" y="300" as="targetPoint" />
          </mxGeometry>
        </mxCell>
        <mxCell id="2nwMvfMTg9_f8jo8CDSc-1" value="Nombre" style="ellipse;whiteSpace=wrap;html=1;aspect=fixed;fillColor=#76609C;strokeColor=#432D57;fontColor=#ffffff;" vertex="1" parent="1">
          <mxGeometry x="790" y="410" width="60" height="60" as="geometry" />
        </mxCell>
        <mxCell id="2nwMvfMTg9_f8jo8CDSc-2" value="" style="endArrow=none;html=1;rounded=0;exitX=0.75;exitY=0;exitDx=0;exitDy=0;entryX=0.5;entryY=1;entryDx=0;entryDy=0;" edge="1" parent="1" source="C6MZclwZwIshW8--uffp-20" target="2nwMvfMTg9_f8jo8CDSc-1">
          <mxGeometry width="50" height="50" relative="1" as="geometry">
            <mxPoint x="530" y="490" as="sourcePoint" />
            <mxPoint x="580" y="440" as="targetPoint" />
          </mxGeometry>
        </mxCell>
      </root>
    </mxGraphModel>
  </diagram>
</mxfile>
